<svg class="ioio-logo" 
  xmlns="http://www.w3.org/2000/svg" viewBox="0 0 127.56 56.36">
  <defs>
    <style>
    .ioio-logo-outline{fill:#000;}
    .ioio-logo-characters{fill:#fff;}
    </style>
  </defs>
  <title>ioio-logo</title>
  <path class="ioio-logo-outline" d="M126.9,43.47a10.77,10.77,0,0,0-3.9-5.2,11.93,11.93,0,0,0,2.45-4l.38-.91a3,3,0,0,0-.61-3.13l-7-6.8a1.33,1.33,0,0,0-2.06.15l-.92,1.22a16.41,16.41,0,0,0-1.76-4c-1.3-2.14-4-6-8.63-7.48a10.48,10.48,0,0,0-3.43-.54,19.53,19.53,0,0,0-8.1,2.22,26.15,26.15,0,0,0-8.32,6.34c-1.22,1.52-2.37,3-3.29,4.35-.53.92-.68.38-.68.38l-.92-2.82a27.59,27.59,0,0,0-1.45-3.67,8.34,8.34,0,0,0,3.66-1.91A9.23,9.23,0,0,0,85.12,12a11.53,11.53,0,0,0-.91-5.8,10,10,0,0,0-4-4.2A11.41,11.41,0,0,0,74.81.24h-.45a9,9,0,0,0-5.5,2,8.81,8.81,0,0,0-3.59,6.11,9.78,9.78,0,0,0,1.3,5.95,14.23,14.23,0,0,0-3.21,3.21,31.8,31.8,0,0,0-3.13,4.89c-.23.38-.38.76-.61,1.15a22.8,22.8,0,0,0-1.38-2.75c-1.37-2.3-4.43-6.34-9.32-7.49a10,10,0,0,0-2.59-.3,18.64,18.64,0,0,0-9,2.75,27.56,27.56,0,0,0-4.43,3,24.51,24.51,0,0,0-3.59,3.75,33.12,33.12,0,0,0-2.83,4l-.69-2.14a32.62,32.62,0,0,0-1.6-4.05A9.39,9.39,0,0,0,27.92,19a9.21,9.21,0,0,0,4-4.81,10.77,10.77,0,0,0,0-6A10.58,10.58,0,0,0,24.26.47a10,10,0,0,0-2.6-.3A9.43,9.43,0,0,0,18.3.78a8.9,8.9,0,0,0-4.58,4.58A11.52,11.52,0,0,0,13,8.41a10.23,10.23,0,0,0,0,3.36A7.91,7.91,0,0,0,13.72,14a10.39,10.39,0,0,0-3.51,2.44A30.47,30.47,0,0,0,5.7,23a55.79,55.79,0,0,0-3.21,7.41A41.29,41.29,0,0,0,.35,38.27a17.24,17.24,0,0,0,.39,8.48A7.92,7.92,0,0,0,2,49.2,9.5,9.5,0,0,0,3.71,51l.08.08a18.36,18.36,0,0,0,3.59,2.14,32.86,32.86,0,0,0,7.56,3,21.64,21.64,0,0,0,2.37.23A7.77,7.77,0,0,0,20,56,13.24,13.24,0,0,0,23.8,53.7,33.09,33.09,0,0,0,27.69,50c.69.53,1.45,1.14,2.29,1.83a30.57,30.57,0,0,0,3.44,2.37l.31.15a15.19,15.19,0,0,0,3.74,1.75,8.46,8.46,0,0,0,2.29.39,4.52,4.52,0,0,0,1.07-.08,7.58,7.58,0,0,0,2.82-1.22c.08-.08.16-.08.16-.15,1.3-.77,2.37-1.46,3.28-2.07a31,31,0,0,0,6.11-5.27,21.85,21.85,0,0,0,1.68-2.13,8.54,8.54,0,0,0,.69,1.83,9,9,0,0,0,3.59,3.74,36,36,0,0,0,3.43,1.91c1.3.61,2.52,1.22,3.75,1.68a20.75,20.75,0,0,0,4,1.22,7.54,7.54,0,0,0,1.3.08,8.08,8.08,0,0,0,3.9-1A19.17,19.17,0,0,0,79,52.63c1.15-1,2.14-2,3.14-3,.76.61,1.45,1.23,2.29,1.84A28.5,28.5,0,0,0,91.77,56a8.52,8.52,0,0,0,3,.54,6.45,6.45,0,0,0,3.66-1.15l.08-.08c1.14-.68,2.29-1.37,3.36-2.06A33.2,33.2,0,0,0,108,48.13a10.3,10.3,0,0,0,3,5.19,12.18,12.18,0,0,0,4.65,2.82,7.29,7.29,0,0,0,2.6.39h0a9.5,9.5,0,0,0,4-.92,9.26,9.26,0,0,0,4.81-5.12A11.09,11.09,0,0,0,126.9,43.47Z" transform="translate(0 -0.17)"/>
  <path class="ioio-logo-characters" d="M19.14,14a7,7,0,0,0,3.13,1.68A5.37,5.37,0,0,0,25.71,15a4.64,4.64,0,0,0,2.06-2.44A6.08,6.08,0,0,0,27.69,9a6.46,6.46,0,0,0-4.58-4.59,5.6,5.6,0,0,0-3.36.16,4.27,4.27,0,0,0-2.21,2.29,7.41,7.41,0,0,0-.46,1.91,6.19,6.19,0,0,0,0,2.06A6.11,6.11,0,0,0,19.14,14Z" transform="translate(0 -0.17)"/>
  <path class="ioio-logo-characters" d="M70.69,12.46a6.11,6.11,0,0,0,5.73,3.06,4.89,4.89,0,0,0,3-1.15,4.75,4.75,0,0,0,1.38-3,8.27,8.27,0,0,0-.46-3.59A6.24,6.24,0,0,0,78.1,5.44a7.65,7.65,0,0,0-3.44-1.15,5.33,5.33,0,0,0-3.13,1.07,4.86,4.86,0,0,0-1.91,3.13A6.36,6.36,0,0,0,70.69,12.46Z" transform="translate(0 -0.17)"/>
  <path class="ioio-logo-characters" d="M122.77,44.92a6.13,6.13,0,0,0-4.81-4.2,5.44,5.44,0,0,0-3.28.38,4.47,4.47,0,0,0-2,2.44,7.49,7.49,0,0,0-.38,3.67,5.44,5.44,0,0,0,1.76,2.9,7.46,7.46,0,0,0,3,1.83,5,5,0,0,0,3.51-.3A4.82,4.82,0,0,0,123.08,49,6.68,6.68,0,0,0,122.77,44.92Z" transform="translate(0 -0.17)"/>
  <path class="ioio-logo-characters" d="M115,38.5a10.35,10.35,0,0,0,6.5-5.88l-3.9-3.82a6,6,0,0,1-3.21,2.3,8.51,8.51,0,0,1-2,.15,2.11,2.11,0,0,1-1.53-.38,6.25,6.25,0,0,0,.46-2,9.36,9.36,0,0,0,0-2,10.87,10.87,0,0,0-1.53-4c-1.37-2.37-3.51-4.74-6.19-5.58s-5.8.23-8.32,1.45a20.88,20.88,0,0,0-6.87,5.2,38.1,38.1,0,0,0-5.5,8.47c-2.14,2.07-4.28,4-6.49,6A33.12,33.12,0,0,1,69.77,43c-.61-2.37.16-5,.84-7.33a41.65,41.65,0,0,1,3.21-7.33,18.06,18.06,0,0,1,2.29-3.44A18.89,18.89,0,0,0,74,20a9.48,9.48,0,0,0-1.68-1.84,3.12,3.12,0,0,0-2.06-1c-1.53.08-2.67,1.6-3.51,2.75A36.48,36.48,0,0,0,64,24.15a50.21,50.21,0,0,0-2.6,5.72,5.34,5.34,0,0,1-2.9,1.38,12.24,12.24,0,0,1-1.6.07,1.69,1.69,0,0,1-1.23-.38,6.4,6.4,0,0,0,.46-2.14,8.2,8.2,0,0,0,0-2,11.05,11.05,0,0,0-1.6-4.05c-1.45-2.37-3.74-4.81-6.64-5.5s-6.11.69-8.63,2.06a20.07,20.07,0,0,0-3.75,2.53,18.75,18.75,0,0,0-3,3.13,33,33,0,0,0-5.35,9.08c-1.91,1.84-3.9,3.67-6,5.43a27.45,27.45,0,0,1-6,4.12c-.61-2.37.16-5,.84-7.33A41.65,41.65,0,0,1,19.14,29a18.38,18.38,0,0,1,2.29-3.44c-.76-2.29-1.53-4.5-3.28-6.26-.69-.69-1.61-1.61-2.68-1.53A4.4,4.4,0,0,0,13,19.26a26.29,26.29,0,0,0-3.81,5.65,54.39,54.39,0,0,0-3,6.87,44.5,44.5,0,0,0-2,7.11A13,13,0,0,0,4.4,45.3a5.56,5.56,0,0,0,.69,1.38,5.19,5.19,0,0,0,.91.84,18.25,18.25,0,0,0,2.91,1.75A35.78,35.78,0,0,0,15.55,52a4.27,4.27,0,0,0,2.6,0,9.75,9.75,0,0,0,2.67-1.68,39.37,39.37,0,0,0,5-5L27,44c1.75,1.61,3.59,3.06,5.42,4.51a25.93,25.93,0,0,0,2.9,2.06,20.2,20.2,0,0,0,3.13,1.53,3.14,3.14,0,0,0,1.45.15,4.23,4.23,0,0,0,1.53-.76c1.07-.61,2.14-1.3,3.13-2a30.47,30.47,0,0,0,5.5-4.66,23.47,23.47,0,0,0,4-6.57,6.81,6.81,0,0,0,4.89.62,11.55,11.55,0,0,0,.61,6.64,4.93,4.93,0,0,0,2,2c1,.61,2,1.14,3.06,1.68s2.21,1.06,3.36,1.52a14.12,14.12,0,0,0,3.2.92,3.67,3.67,0,0,0,2.52-.46,16.22,16.22,0,0,0,2.68-1.91A50,50,0,0,0,82,43.39v.15c1.76,1.53,3.44,3.06,5.27,4.43a25.72,25.72,0,0,0,6.11,3.82,5,5,0,0,0,1.45.31,2.77,2.77,0,0,0,1.53-.61c1.07-.61,2.14-1.3,3.21-2A24.36,24.36,0,0,0,105,44.84a22.86,22.86,0,0,0,4.12-6.64A7.2,7.2,0,0,0,115,38.5ZM45.56,34.3a22.35,22.35,0,0,1-4,4.59,19.06,19.06,0,0,1-2.44,1.9c-.61.39-1.53.92-2.29.62s-.54-1.76-.38-2.52A13.3,13.3,0,0,1,37.32,36a22,22,0,0,1,3.13-5.34c.68-.92,1.45-1.76,2.21-2.6a2.17,2.17,0,0,1,2.9-.61,13,13,0,0,0,.08,2.44,4.47,4.47,0,0,0,1.22,2.07C46.48,32.7,46,33.54,45.56,34.3Zm55.83,0a22.66,22.66,0,0,1-4,4.59A19.06,19.06,0,0,1,95,40.79a2.81,2.81,0,0,1-2.3.62c-.84-.39-.53-1.76-.38-2.52A13.88,13.88,0,0,1,93.14,36a22.71,22.71,0,0,1,3.13-5.34c.69-.92,1.45-1.76,2.22-2.6a2.17,2.17,0,0,1,2.9-.61,12.25,12.25,0,0,0,.08,2.44,4.47,4.47,0,0,0,1.22,2.07C102.31,32.7,101.85,33.54,101.39,34.3Z" transform="translate(0 -0.17)"/>
</svg>