<svg version="1.1" id="Layer_1" xmlns="http://www.w3.org/2000/svg" xmlns:xlink="http://www.w3.org/1999/xlink" x="0px" y="0px" viewBox="303.5 189.5 349 148" enable-background="new 303.5 189.5 349 148" xml:space="preserve">
							<path class="logo" d="M390.336,269.059c0.942,1.415,2.004,2.593,2.946,3.655c1.061,1.059,2.003,2.002,2.829,2.71
								c0.823,0.708,1.531,1.414,2.004,1.886c0.471,0.472,0.825,0.824,0.825,0.943c-1.062,2.239-2.71,5.185-4.95,8.604
								c-2.239,3.535-4.832,7.188-7.779,11.196c-2.947,4.005-6.129,7.896-9.429,11.902c-3.301,4.008-6.603,7.662-9.901,10.846
								c-3.301,3.302-6.364,5.894-9.311,7.896c-2.946,2.003-5.422,3.064-7.544,3.064c-1.296,0-2.947-0.236-5.068-0.826
								c-2.004-0.59-4.243-1.297-6.601-2.238c-2.358-0.94-4.716-2.004-7.072-3.063c-2.357-1.18-4.596-2.239-6.602-3.418
								c-2.003-1.178-3.771-2.237-5.186-3.182c-1.414-1.062-2.357-1.888-2.946-2.476c-1.297-1.771-2.122-3.772-2.71-6.129
								c-0.59-2.359-0.826-4.834-0.826-7.544c0-3.536,0.474-7.661,1.533-12.495c1.062-4.715,2.477-9.664,4.242-14.616
								c1.768-4.949,3.772-9.898,6.012-14.732c2.239-4.832,4.599-9.194,7.071-12.965c2.357-3.772,4.833-6.954,7.19-9.311
								c2.355-2.357,4.597-3.536,6.6-3.536c1.061,0,2.24,0.354,3.536,1.179c1.886,1.414,3.418,2.829,4.833,4.361
								c1.296,1.533,2.475,3.183,3.417,4.832c0.942,1.768,1.768,3.537,2.475,5.422c0.708,1.888,1.296,3.89,2.003,6.013
								c-1.178,1.296-2.475,3.064-3.771,5.185c-1.296,2.121-2.711,4.597-4.125,7.191c-1.415,2.71-2.712,5.537-4.008,8.484
								c-1.296,2.946-2.357,5.893-3.418,8.959c-0.942,2.946-1.769,5.894-2.357,8.721c-0.589,2.828-0.825,5.424-0.825,7.66
								c0,1.889,0.236,3.42,0.59,4.715c3.417-1.646,7.188-4.125,11.434-7.307c4.243-3.182,8.251-6.602,12.375-10.252
								c4.126-3.656,8.133-7.43,12.021-11.197C383.971,275.187,387.389,271.888,390.336,269.059z M487.573,277.311
								c-1.062,2.592-2.478,4.949-4.362,7.189s-4.005,4.125-6.361,5.658s-4.835,2.828-7.544,3.654c-2.593,0.822-5.186,1.295-7.661,1.295
								c-3.3,0-6.129-0.707-8.484-2.238c-2.004,4.715-4.243,8.959-6.836,12.613c-2.593,3.77-5.54,7.068-8.724,10.137
								c-3.183,3.064-6.719,5.773-10.488,8.367c-3.771,2.475-7.779,4.949-11.904,7.309c-0.589,0.354-1.415,0.471-2.358,0.471
								c-1.53,0-3.417-0.471-5.539-1.414c-2.12-0.943-4.359-2.24-6.836-3.652c-2.355-1.533-4.833-3.186-7.188-5.07
								c-2.357-1.885-4.714-3.65-6.836-5.42s-4.125-3.418-5.776-4.951c-1.767-1.529-3.062-2.711-4.007-3.535
								c-0.236-1.061-0.472-2.119-0.589-3.416c-0.235-1.299-0.354-2.479-0.472-3.771c-0.118-1.297-0.235-2.475-0.354-3.537
								c-0.118-1.059-0.118-2.002-0.118-2.592c0-3.535,0.589-7.07,1.77-10.725c1.179-3.658,2.711-7.31,4.479-10.847
								c1.886-3.536,3.892-6.953,6.129-10.137c2.239-3.299,4.479-6.127,6.603-8.721c1.768-2.239,4.007-4.595,6.954-7.072
								c2.944-2.478,6.128-4.597,9.665-6.601c3.535-2.004,7.07-3.536,10.725-4.833c3.653-1.296,7.189-1.885,10.373-1.885
								c3.536,0,6.954,1.061,10.136,3.064c3.3,2.004,6.246,4.596,8.723,7.661c2.594,3.064,4.596,6.365,6.13,9.782
								c1.529,3.536,2.355,6.718,2.355,9.665c0,0.589,0,1.296-0.12,2.122c-0.116,0.825-0.116,1.531-0.234,2.357
								c-0.118,0.826-0.233,1.532-0.472,2.357c-0.118,0.708-0.353,1.415-0.589,1.886c0.236,0.235,0.471,0.354,0.707,0.471
								c0.12,0.119,0.354,0.236,0.708,0.354c0.235,0.118,0.707,0.118,1.18,0.236c0.471,0,1.18,0,2.12,0c1.061,0,2.123,0,3.185-0.118
								c1.059-0.119,2.236-0.354,3.416-0.825c1.18-0.471,2.478-1.179,3.655-2.122c1.298-0.944,2.594-2.239,3.891-3.89L487.573,277.311z
								 M429.171,262.34c-0.943-0.589-1.886-0.942-2.946-0.942c-0.823,0-1.648,0.236-2.475,0.589c-0.825,0.354-1.533,0.943-2.123,1.533
								c-2.592,2.71-4.95,5.54-7.189,8.487c-2.237,3.063-4.241,6.011-5.893,9.192c-1.65,3.183-2.946,6.246-3.89,9.312
								c-0.942,3.062-1.414,6.011-1.414,8.72c0,0.709,0.234,1.414,0.825,1.89c0.589,0.469,1.179,0.707,2.003,0.707
								c1.061,0,2.476-0.472,4.125-1.416c1.648-0.943,3.3-2.119,5.066-3.535c1.77-1.413,3.418-2.828,5.069-4.479
								c1.647-1.531,2.946-2.945,4.007-4.244c1.768-2.118,3.418-4.242,4.714-6.362c1.414-2.121,2.71-4.479,3.892-6.835
								c-1.062-0.942-1.888-1.886-2.478-2.829c-0.471-0.943-0.824-2.003-1.06-3.064c-0.236-1.061-0.236-2.122-0.236-3.3
								C429.171,264.698,429.171,263.52,429.171,262.34z M543.559,267.704c0.942,1.414,2.005,2.593,2.946,3.655
								c1.062,1.059,2.004,2.004,2.828,2.71c0.824,0.706,1.532,1.415,2.003,1.886c0.471,0.471,0.825,0.824,0.825,0.944
								c-1.062,2.239-2.711,5.185-4.951,8.604c-2.237,3.416-4.831,7.188-7.778,11.197c-2.944,4.006-6.129,7.896-9.429,11.901
								c-3.301,4.008-6.601,7.662-9.901,10.844c-3.301,3.302-6.36,5.896-9.311,7.896c-2.945,2.007-5.422,3.063-7.543,3.063
								c-1.295,0-2.946-0.235-5.067-0.823c-2.004-0.59-4.243-1.297-6.601-2.238c-2.356-0.94-4.714-2.004-7.071-3.065
								c-2.354-1.178-4.597-2.235-6.603-3.416c-2.004-1.178-3.772-2.239-5.186-3.185c-1.414-1.059-2.355-1.883-2.945-2.473
								c-1.3-1.769-2.123-3.772-2.714-6.132c-0.589-2.354-0.821-4.834-0.821-7.543c0-3.534,0.47-7.66,1.531-12.491
								c1.059-4.715,2.476-9.666,4.242-14.616c1.769-4.949,3.772-9.898,6.015-14.732c2.236-4.832,4.596-9.193,7.07-12.964
								c2.357-3.772,4.831-6.955,7.189-9.312c2.356-2.357,4.598-3.536,6.601-3.536c1.062,0,2.239,0.354,3.536,1.179
								c1.888,1.415,3.416,2.83,4.833,4.361c1.296,1.532,2.478,3.183,3.417,4.833c0.944,1.768,1.771,3.536,2.479,5.422
								c0.706,1.887,1.295,3.89,2.003,6.012c-1.178,1.296-2.479,3.064-3.771,5.185c-1.297,2.123-2.71,4.597-4.125,7.191
								c-1.415,2.711-2.712,5.539-4.008,8.485c-1.296,2.946-2.357,5.894-3.416,8.958c-0.945,2.946-1.769,5.895-2.355,8.723
								c-0.591,2.829-0.826,5.422-0.826,7.66c0,1.889,0.235,3.416,0.59,4.715c3.416-1.648,7.188-4.125,11.433-7.307
								c4.242-3.186,8.251-6.604,12.376-10.256c4.126-3.653,8.13-7.426,12.021-11.196C536.957,274.068,540.494,270.533,543.559,267.704z
								 M642.151,277.191c-1.062,2.592-2.479,4.95-4.361,7.189c-1.888,2.24-4.008,4.125-6.365,5.658c-2.355,1.53-4.831,2.828-7.541,3.653
								c-2.594,0.824-5.188,1.299-7.661,1.299c-3.303,0-6.129-0.707-8.485-2.241c-2.005,4.715-4.244,8.961-6.835,12.61
								c-2.596,3.772-5.539,7.072-8.726,10.14c-3.182,3.063-6.717,5.772-10.49,8.367c-3.769,2.475-7.775,4.948-11.902,7.309
								c-0.588,0.354-1.413,0.472-2.355,0.472c-1.53,0-3.419-0.472-5.539-1.414c-2.123-0.942-4.36-2.239-6.837-3.653
								c-2.356-1.533-4.833-3.185-7.188-5.067c-2.357-1.886-4.715-3.654-6.838-5.423c-2.122-1.769-4.125-3.418-5.773-4.95
								c-1.768-1.531-3.066-2.709-4.008-3.535c-0.235-1.062-0.47-2.121-0.589-3.418c-0.237-1.297-0.354-2.476-0.472-3.771
								c-0.119-1.297-0.233-2.477-0.354-3.536c-0.117-1.062-0.117-2.003-0.117-2.591c0-3.536,0.591-7.073,1.77-10.729
								c1.178-3.652,2.711-7.31,4.479-10.844c1.887-3.535,3.889-6.953,6.129-10.137c2.239-3.3,4.479-6.128,6.602-8.721
								c1.769-2.239,4.007-4.596,6.954-7.072c2.945-2.477,6.13-4.597,9.663-6.601c3.536-2.004,7.072-3.535,10.728-4.833
								c3.655-1.296,7.19-1.886,10.372-1.886c3.534,0,6.953,1.061,10.139,3.065c3.299,2.003,6.245,4.596,8.72,7.661
								c2.595,3.064,4.599,6.365,6.129,9.783c1.531,3.536,2.356,6.717,2.356,9.664c0,0.59,0,1.297-0.116,2.123
								c-0.121,0.824-0.121,1.532-0.236,2.357c-0.114,0.825-0.234,1.533-0.473,2.357c-0.117,0.708-0.353,1.415-0.591,1.886
								c0.238,0.236,0.474,0.354,0.711,0.472c0.117,0.117,0.354,0.236,0.706,0.354c0.236,0.117,0.709,0.117,1.179,0.236
								c0.475,0,1.181,0,2.121,0c1.062,0,2.125,0,3.185-0.121c1.062-0.117,2.238-0.353,3.419-0.822c1.179-0.472,2.475-1.179,3.651-2.124
								c1.301-0.942,2.596-2.238,3.892-3.89L642.151,277.191z M585.812,262.34c-0.941-0.589-1.888-0.942-2.947-0.942
								c-0.821,0-1.647,0.236-2.477,0.589c-0.824,0.354-1.529,0.943-2.12,1.533c-2.594,2.71-4.95,5.54-7.19,8.487
								c-2.237,3.063-4.242,6.011-5.896,9.192c-1.646,3.183-2.943,6.246-3.889,9.312c-0.94,3.062-1.414,6.011-1.414,8.72
								c0,0.709,0.235,1.414,0.824,1.89c0.59,0.469,1.18,0.707,2.004,0.707c1.062,0,2.475-0.472,4.126-1.416
								c1.649-0.943,3.3-2.119,5.066-3.535c1.77-1.413,3.42-2.828,5.067-4.479c1.649-1.531,2.946-2.945,4.007-4.244
								c1.771-2.118,3.422-4.242,4.717-6.362c1.414-2.121,2.712-4.479,3.89-6.835c-1.06-0.942-1.885-1.886-2.475-2.829
								c-0.475-0.943-0.825-2.003-1.062-3.064c-0.235-1.061-0.235-2.122-0.235-3.3C585.93,264.698,585.812,263.52,585.812,262.34z
								 M646.982,318.914c0,2.24-0.474,4.127-1.414,5.658c-0.943,1.535-2.122,2.945-3.417,4.01c-1.414,1.059-2.946,1.885-4.599,2.355
								c-1.648,0.473-3.301,0.824-4.832,0.824c-1.533,0-3.182-0.473-5.067-1.297c-1.887-0.943-3.654-2.004-5.422-3.539
								c-1.769-1.529-3.064-3.062-4.242-4.945c-1.18-1.891-1.77-3.895-1.77-5.896s0.233-4.006,0.591-6.012
								c0.47-2.006,1.059-3.771,2.119-5.307c0.942-1.529,2.237-2.826,3.892-3.771c1.647-0.94,3.65-1.412,6.01-1.412
								c2.829,0,5.423,0.59,7.661,1.533c2.24,1.059,4.245,2.473,5.775,4.241c1.528,1.769,2.711,3.89,3.534,6.246
								C646.631,313.965,646.982,316.439,646.982,318.914z M379.728,216.845c0,2.239-0.472,4.125-1.415,5.656
								c-0.941,1.533-2.119,2.947-3.415,4.007c-1.414,1.061-2.946,1.886-4.599,2.358c-1.647,0.471-3.3,0.825-4.833,0.825
								c-1.532,0-3.181-0.472-5.066-1.298c-1.888-0.942-3.654-2.003-5.424-3.536c-1.768-1.532-3.062-3.065-4.241-4.949
								c-1.181-1.887-1.77-3.891-1.77-5.894c0-2.004,0.234-4.007,0.589-6.012c0.472-2.004,1.062-3.772,2.122-5.304
								c0.942-1.533,2.238-2.829,3.891-3.772c1.647-0.942,3.652-1.414,6.011-1.414c2.829,0,5.423,0.589,7.662,1.533
								c2.237,1.059,4.244,2.476,5.773,4.243c1.53,1.768,2.71,3.889,3.535,6.247C379.375,211.895,379.728,214.371,379.728,216.845z
								 M496.843,213.682c-0.473-2.189-0.411-4.131,0.188-5.827c0.598-1.698,1.45-3.329,2.494-4.64c1.156-1.336,2.48-2.464,3.996-3.273
								c1.516-0.81,3.052-1.503,4.547-1.827c1.5-0.323,3.212-0.211,5.229,0.198c2.042,0.523,3.994,1.187,6.045,2.311
								c2.053,1.125,3.645,2.349,5.192,3.943c1.549,1.595,2.548,3.429,2.972,5.386c0.422,1.959,0.616,3.967,0.692,6
								c-0.038,2.058-0.241,3.911-0.954,5.633c-0.6,1.696-1.594,3.236-3.006,4.507c-1.414,1.271-3.272,2.153-5.577,2.65
								c-2.767,0.598-5.424,0.568-7.812,0.121c-2.412-0.564-4.668-1.523-6.541-2.928c-1.868-1.405-3.471-3.23-4.772-5.359
								C498.232,218.447,497.363,216.101,496.843,213.682z"></path>
							</svg>